HIERARCHY
ROOT Hips
{
	OFFSET	0.00	0.00	0.00
	CHANNELS 6 Xposition Yposition Zposition Zrotation Xrotation Yrotation
	JOINT LeftUpLeg
	{
		OFFSET	 0.126116	-0.014019	-0.065224
		CHANNELS 3 Zrotation Xrotation Yrotation
		JOINT LeftLeg
		{
			OFFSET	 0.000000	 0.000000	 0.569914
			CHANNELS 3 Zrotation Xrotation Yrotation
			JOINT LeftFoot
			{
				OFFSET	 0.000000	 0.000000	 0.544423
				CHANNELS 3 Zrotation Xrotation Yrotation
				JOINT LeftToeBase
				{
					OFFSET	 0.000000	 0.000000	 0.207117
					CHANNELS 3 Zrotation Xrotation Yrotation
					End Site
					{
						OFFSET	 0.000000	 0.000000	 0.207117
					}
				}
			}
		}
	}
	JOINT RightUpLeg
	{
		OFFSET	-0.124023	-0.008373	-0.065224
		CHANNELS 3 Zrotation Xrotation Yrotation
		JOINT RightLeg
		{
			OFFSET	 0.000000	 0.000000	 0.570047
			CHANNELS 3 Zrotation Xrotation Yrotation
			JOINT RightFoot
			{
				OFFSET	 0.000000	 0.000000	 0.544354
				CHANNELS 3 Zrotation Xrotation Yrotation
				JOINT RightToeBase
				{
					OFFSET	 0.000000	 0.000000	 0.207540
					CHANNELS 3 Zrotation Xrotation Yrotation
					End Site
					{
						OFFSET	 0.000000	 0.000000	 0.207540
					}
				}
			}
		}
	}
	JOINT Spine
	{
		OFFSET	 0.000184	-0.007763	 0.117403
		CHANNELS 3 Zrotation Xrotation Yrotation
		JOINT Spine1
		{
			OFFSET	 0.000000	 0.000000	 0.137269
			CHANNELS 3 Zrotation Xrotation Yrotation
			JOINT Spine2
			{
				OFFSET	 0.000000	 0.000000	 0.156879
				CHANNELS 3 Zrotation Xrotation Yrotation
				JOINT LeftShoulder
				{
					OFFSET	 0.080501	-0.002496	 0.160144
					CHANNELS 3 Zrotation Xrotation Yrotation
					JOINT LeftArm
					{
						OFFSET	 0.000000	 0.000000	 0.164363
						CHANNELS 3 Zrotation Xrotation Yrotation
						JOINT LeftForeArm
						{
							OFFSET	 0.000000	 0.000000	 0.364576
							CHANNELS 3 Zrotation Xrotation Yrotation
							JOINT LeftHand
							{
								OFFSET	 0.000000	 0.000000	 0.360812
								CHANNELS 3 Zrotation Xrotation Yrotation
								JOINT LeftHandIndex1
								{
									OFFSET	 0.000000	 0.000000	 0.086006
									CHANNELS 3 Zrotation Xrotation Yrotation
									JOINT LeftHandIndex2
									{
										OFFSET	 0.000000	 0.000000	 0.047236
										CHANNELS 3 Zrotation Xrotation Yrotation
										JOINT LeftHandIndex3
										{
											OFFSET	-0.004284	-0.000551	 0.038166
											CHANNELS 3 Zrotation Xrotation Yrotation
											End Site
											{
												OFFSET	-0.004284	-0.000551	 0.038166
											}
										}
									}
								}
							}
						}
					}
				}
				JOINT Neck
				{
					OFFSET	 0.000000	 0.000000	 0.176489
					CHANNELS 3 Zrotation Xrotation Yrotation
					JOINT Head
					{
						OFFSET	 0.000000	-0.001747	 0.077940
						CHANNELS 3 Zrotation Xrotation Yrotation
						End Site
						{
							OFFSET	 0.000000	-0.001747	 0.077940
						}
					}
				}
				JOINT RightShoulder
				{
					OFFSET	-0.080363	 0.000306	 0.159706
					CHANNELS 3 Zrotation Xrotation Yrotation
					JOINT RightArm
					{
						OFFSET	 0.000000	 0.000000	 0.164196
						CHANNELS 3 Zrotation Xrotation Yrotation
						JOINT RightForeArm
						{
							OFFSET	 0.000000	 0.000000	 0.365611
							CHANNELS 3 Zrotation Xrotation Yrotation
							JOINT RightHand
							{
								OFFSET	 0.000000	 0.000000	 0.360648
								CHANNELS 3 Zrotation Xrotation Yrotation
								JOINT RightHandIndex1
								{
									OFFSET	 0.000000	 0.000000	 0.069977
									CHANNELS 3 Zrotation Xrotation Yrotation
									JOINT RightHandIndex2
									{
										OFFSET	 0.000000	 0.000000	 0.052305
										CHANNELS 3 Zrotation Xrotation Yrotation
										JOINT RightHandIndex3
										{
											OFFSET	 0.009002	-0.000782	 0.042196
											CHANNELS 3 Zrotation Xrotation Yrotation
											End Site
											{
												OFFSET	 0.009002	-0.000782	 0.042196
											}
										}
									}
								}
							}
						}
					}
				}
			}
		}
	}
}
MOTION
Frames:    10
Frame Time: 0.03333334
-0.088959	 6.736722	 1.251292	-94.964960	 1.738178	 1.465972	-39.463030	-8.316147	-178.226000	 18.087600	-41.591500	 6.028592	-98.454370	 75.093150	 75.548250	-2.203315	 46.633520	-0.470293	 20.867250	-6.540654	-176.985000	-8.173834	-40.479990	-0.054174	 57.988230	 79.769610	-42.307490	 1.970647	 56.040550	 0.837248	-3.901156	 4.911792	 2.047198	-10.776210	 11.040930	-9.313629	 10.469660	-26.360680	 10.153800	-91.229290	 83.958310	 178.242600	 67.381370	 58.965960	-73.246350	-1.487382	-9.266592	-37.535060	 22.836980	 6.690896	-11.148350	-11.545890	 9.728126	-25.558190	-5.213937	-0.202400	 3.566957	-1.378229	 35.397820	-2.634230	-0.405046	 4.563253	 1.106885	-3.072003	-14.707910	-12.477300	 87.726890	 87.419040	-176.798900	-9.028138	 77.069410	-7.237209	 0.649583	-9.107943	 30.573310	-15.487750	-1.062567	 9.423425	-1.453847	 24.473030	-62.138940	 5.070519	-0.690904	-9.399550	-2.350882	 35.473990	 5.254307
-0.088428	 6.753525	 1.252101	-91.603980	 2.305163	 1.888101	-41.031760	-8.512107	-179.363300	 19.011010	-42.029640	 6.707636	-97.262470	 74.421410	 74.181470	-2.218565	 45.742490	-0.441907	 17.903650	-6.371397	-177.598600	-6.690393	-39.866930	 0.897560	 58.600280	 81.078900	-43.449340	 2.065845	 52.836760	 0.697181	-3.312072	 4.676679	 1.759957	-10.736680	 11.582460	-9.504879	 12.109370	-27.603510	 11.000810	-91.229240	 83.958340	 178.242600	 66.398780	 61.228430	-71.595790	-1.129605	-8.840216	-36.105270	 21.939030	 5.378291	-10.164890	-11.176280	 9.615616	-24.154150	-5.213937	-0.202400	 3.566957	-1.378229	 35.397820	-2.634230	 1.406119	 5.624570	-1.019147	-1.335245	-17.064790	-9.252243	 87.726770	 87.418890	-176.798700	-7.236051	 76.788380	-8.990313	 1.135271	-8.910031	 31.193970	-15.719020	-1.114953	 9.450174	-1.683105	 24.210640	-62.495050	 5.070519	-0.690904	-9.399550	-2.350882	 35.473990	 5.254307
-0.088050	 6.774728	 1.253654	-87.603450	 3.090478	 2.206300	-42.377230	-9.092705	 179.344600	 19.706010	-42.706840	 7.273990	-94.422560	 73.886950	 71.414830	-2.259637	 43.048160	-0.360588	 14.404860	-5.586537	-177.928600	-4.796957	-38.045340	 2.031119	 56.048570	 82.166990	-41.830790	 2.054682	 53.250530	 0.714184	-2.349344	 4.271999	 1.417611	-10.520000	 12.085400	-9.557000	 14.479060	-28.922840	 12.168090	-91.229180	 83.958340	 178.242500	 61.679250	 65.534840	-66.643220	-0.541300	-8.067649	-33.472640	 19.344230	 2.942843	-8.228424	-11.079890	 8.939484	-23.287050	-5.213937	-0.202400	 3.566957	-1.378229	 35.397820	-2.634230	 4.175598	 6.930429	-4.388978	 1.535711	-19.808980	-4.049704	 87.726970	 87.419040	-176.798900	-5.509964	 76.064920	-10.670760	 1.789212	-8.507664	 31.719030	-16.007720	-1.257238	 9.510473	-0.900865	 25.386530	-62.512800	 5.070519	-0.690904	-9.399550	-2.350882	 35.473990	 5.254307
-0.088730	 6.799062	 1.255376	-83.416780	 3.368363	 2.474845	-42.411090	-9.560581	 178.385500	 20.085520	-43.689820	 7.673725	-91.708790	 73.676720	 68.954730	-2.272601	 42.087680	-0.333086	 10.485450	-3.605244	-178.474200	-2.663952	-35.228190	 3.136434	 54.578480	 83.621390	-41.516490	 2.108140	 51.154240	 0.630990	-0.753319	 4.145648	 1.190329	-9.819755	 12.624100	-9.449522	 17.030170	-29.808670	 13.450060	-91.229260	 83.958310	 178.242600	 47.688130	 69.017250	-55.796590	-0.878772	-5.133848	-25.689640	 14.627440	 0.036252	-6.000603	-10.922240	 8.647115	-22.520540	-5.213937	-0.202400	 3.566957	-1.378229	 35.397820	-2.634230	 7.336743	 8.444027	-7.680296	 5.054090	-22.686870	 2.073665	 87.727130	 87.419040	-176.799100	-5.120906	 74.803600	-10.963810	 3.384345	-7.588604	 32.487800	-15.680930	-1.479815	 9.686459	-1.040185	 25.284670	-63.002950	 5.070519	-0.690904	-9.399550	-2.350882	 35.473990	 5.254307
-0.086961	 6.824979	 1.256702	-79.462050	 3.905345	 2.851904	-43.440110	-10.241890	 177.325700	 21.221470	-44.870410	 8.653660	-87.672010	 72.879010	 65.129890	-2.401441	 23.851060	 0.096702	 6.489820	-2.197202	-179.147400	-0.607060	-32.425980	 4.028968	 48.500230	 85.046980	-36.683850	 2.168208	 48.389660	 0.531110	 0.915480	 3.937542	 0.621147	-9.003135	 13.141040	-8.757177	 18.581670	-30.459310	 13.808470	-91.229300	 83.958370	 178.242600	 28.981690	 69.402460	-41.635540	-3.535771	-1.837469	-17.030570	 9.088191	-2.862970	-4.507300	-10.530870	 9.002864	-21.408080	-5.213937	-0.202400	 3.566957	-1.378229	 35.397820	-2.634230	 9.968122	 9.485865	-9.951216	 8.096234	-24.344620	 7.029365	 87.726830	 87.418820	-176.798800	-0.862455	 73.283000	-14.296720	 4.350221	-7.240099	 33.983330	-15.025660	-2.463528	 9.368803	-0.868746	 25.605810	-63.332820	 5.070519	-0.690904	-9.399550	-2.350882	 35.473990	 5.254307
-0.081795	 6.851177	 1.257814	-75.284000	 4.803205	 2.709951	-41.724400	-12.129750	 175.652300	 20.570850	-46.288800	 8.382954	-87.144640	 73.223140	 65.378590	-2.395220	 26.024440	 0.051676	 3.733770	-1.553787	-179.791700	 0.703218	-30.173510	 4.445972	 56.900570	 87.412610	-45.670370	 2.279104	 41.427510	 0.316541	 2.066757	 3.759032	 0.366725	-8.675092	 13.553010	-8.341244	 20.210310	-30.834010	 14.419190	-91.229320	 83.958270	 178.242600	 9.067284	 66.133080	-28.266090	-6.633375	 0.809445	-5.903021	 4.165804	-6.338270	-3.496006	-10.090720	 8.985044	-19.841750	-5.213937	-0.202400	 3.566957	-1.378229	 35.397820	-2.634230	 12.227490	 10.616270	-11.551040	 10.756880	-25.384600	 11.498020	 87.726560	 87.418820	-176.798500	 2.303413	 71.785790	-15.578760	 5.940906	-6.603804	 36.033930	-13.922280	-3.637053	 9.128162	-0.485883	 26.279820	-63.935700	 5.070519	-0.690904	-9.399550	-2.350882	 35.473990	 5.254307
-0.077750	 6.871685	 1.258038	-72.049130	 5.234173	 2.781555	-39.372550	-13.617560	 174.344300	 19.619710	-47.493920	 7.834023	-88.546650	 73.928700	 67.379800	-2.370862	 31.368410	-0.064354	 1.709390	-0.850454	 179.457500	 1.562377	-28.337800	 4.615700	 82.628110	 88.872050	-71.874250	 2.324675	 37.256920	 0.206144	 2.740669	 4.031719	-0.001561	-8.420601	 13.911400	-8.102066	 21.323440	-31.069200	 14.782970	-91.229230	 83.958310	 178.242500	-0.490222	 63.285620	-19.409090	-8.311769	 0.941546	-6.241374	 1.571757	-8.909636	-3.017118	-10.084900	 8.953200	-19.800010	-5.213937	-0.202400	 3.566957	-1.378229	 35.397820	-2.634230	 13.627350	 11.003810	-12.242690	 12.304610	-25.481270	 14.079360	 87.726970	 87.418820	-176.798900	 4.391809	 70.602150	-16.095030	 7.361364	-6.086823	 38.292260	-12.853360	-4.781061	 8.910770	-0.246905	 26.631000	-63.985950	 5.070519	-0.690904	-9.399550	-2.350882	 35.473990	 5.254307
-0.073876	 6.891723	 1.257478	-68.994770	 5.646873	 3.051921	-37.019220	-15.144210	 173.105900	 18.718010	-48.725810	 7.297645	-90.126780	 74.647350	 69.499030	-2.366821	 32.036810	-0.079513	-0.918134	-0.173612	 178.840300	 2.612134	-26.408370	 4.804923	 95.967480	 89.585980	-86.082550	 2.337161	 35.860420	 0.171432	 3.434054	 4.370121	-0.678049	-7.989738	 14.239220	-7.774552	 21.829570	-31.269340	 14.669680	-91.229200	 83.958340	 178.242500	-6.822246	 60.031180	-13.355540	-9.160626	 1.070181	-6.568018	 0.155171	-11.098270	-2.626417	-10.370660	 8.343522	-20.395250	-5.213937	-0.202400	 3.566957	-1.378229	 35.397820	-2.634230	 14.537490	 11.154340	-12.548020	 13.357410	-25.274220	 16.123740	 87.727120	 87.418960	-176.799100	 5.606616	 69.337270	-15.710890	 8.681907	-5.694340	 41.251760	-11.992450	-6.022470	 8.718704	-0.366930	 26.469000	-64.036150	 5.070519	-0.690904	-9.399550	-2.350882	 35.473990	 5.254307
-0.068658	 6.914598	 1.256155	-65.742870	 6.156573	 3.197375	-33.377840	-17.321080	 172.113000	 17.324550	-50.006940	 6.359145	-91.997460	 75.732040	 72.004650	-2.364944	 32.334270	-0.086312	-4.262163	 0.160684	 178.421200	 4.264997	-24.694450	 5.208114	-76.496230	 89.853290	 84.934330	 2.356881	 33.303950	 0.110305	 4.442177	 4.665343	-1.257966	-7.287449	 14.691390	-7.855703	 22.188160	-31.287080	 14.772060	-91.229260	 83.958370	 178.242600	-11.742120	 56.730170	-5.316348	-9.028536	 0.521996	-13.153730	-0.282728	-13.269120	-2.057178	-10.739710	 6.948299	-20.737320	-5.213937	-0.202400	 3.566957	-1.378229	 35.397820	-2.634230	 15.121110	 11.639450	-12.559910	 14.220060	-25.409030	 18.268050	 87.726660	 87.418960	-176.798600	 5.582419	 67.944700	-13.525900	 9.946280	-5.267748	 44.772510	-11.494910	-7.509522	 8.593126	-1.051649	 25.541410	-64.304080	 5.070519	-0.690904	-9.399550	-2.350882	 35.473990	 5.254307
-0.063450	 6.936966	 1.254658	-62.583580	 6.337971	 3.126299	-29.843670	-19.078480	 172.158900	 16.323780	-50.681440	 5.640971	-91.660590	 76.716750	 72.008700	-2.399862	 24.474100	 0.083899	-7.574748	 0.225178	 177.749600	 6.174566	-23.818150	 5.862224	-125.859400	 88.406030	 132.752100	 2.389116	 27.320840	-0.022939	 5.501085	 5.096655	-1.364329	-6.635679	 15.594170	-8.415120	 22.705130	-31.738730	 15.497240	-91.229270	 83.958340	 178.242600	-14.519560	 52.851920	-4.629287	-8.695189	 1.380985	-7.336781	 0.094229	-14.941390	-1.541384	-10.549280	 6.687920	-19.941390	-5.213937	-0.202400	 3.566957	-1.378229	 35.397820	-2.634230	 15.555020	 12.056410	-12.830980	 14.828170	-25.852810	 19.696880	 87.727050	 87.419040	-176.799000	 6.379182	 66.898020	-12.152750	 10.578150	-5.089745	 47.722860	-11.281150	-9.487453	 8.206951	-1.520619	 24.791600	-63.969920	 5.070519	-0.690904	-9.399550	-2.350882	 35.473990	 5.254307
